# xmcd
#
# Track frame offsets: 
#        150
#        15515
#        26366
#        40950
#        56315
#        69563
#        83256
#        96158
#        110526
#        123889
#        139700
#        154669
#        168328
#        182973
#        196499
#
# Disc length: 2774 seconds
#
# Revision: 0
# Processed by: cddbd v1.5.2PL0 Copyright (c) Steve Scherf et al.
# Submitted via: ExactAudioCopyFreeDBPlugin 1.0
#
DISCID=b70ad40f
DTITLE=Buddy Williams - The Last Outback Entertainer CD 3
DYEAR=2011
DGENRE=country
TTITLE0=Dear Old Dorrigo
TTITLE1=Spirit of Progress
TTITLE2=The Kelly Gang
TTITLE3=The Flying Docto
TTITLE4=Rhythm In The Saddle
TTITLE5=Riding Home At Sundown
TTITLE6=The Drover's Song
TTITLE7=Freight Train Blues
TTITLE8=The Swagman's Friend
TTITLE9=Australia's Kitty Grill
TTITLE10=Christmas Bells
TTITLE11=Music In My Pony's Feet
TTITLE12=The Old Sundowner
TTITLE13=Bushland Paradise
TTITLE14=Pioneering Days 
EXTD=
EXTT0=
EXTT1=
EXTT2=
EXTT3=
EXTT4=
EXTT5=
EXTT6=
EXTT7=
EXTT8=
EXTT9=
EXTT10=
EXTT11=
EXTT12=
EXTT13=
EXTT14=
PLAYORDER=
